<svg width="32" height="32" viewBox="0 0 32 32" fill="none" xmlns="http://www.w3.org/2000/svg">
<rect width="32" height="32" rx="4" fill="#E02D69"/>
<g clip-path="url(#clip0)">
<path d="M16 7.25503C18.848 7.25503 19.1853 7.2657 20.3102 7.31725C21.524 7.37281 22.6506 7.61592 23.5173 8.48259C24.384 9.34925 24.6271 10.4759 24.6826 11.6897C24.7338 12.8146 24.7449 13.1519 24.7449 15.9999C24.7449 18.8479 24.7342 19.1853 24.6826 20.3101C24.6271 21.5239 24.384 22.6506 23.5173 23.5173C22.6506 24.3839 21.524 24.627 20.3102 24.6826C19.1858 24.7337 18.8484 24.7448 16 24.7448C13.1515 24.7448 12.8142 24.7341 11.6898 24.6826C10.476 24.627 9.34931 24.3839 8.48265 23.5173C7.61598 22.6506 7.37287 21.5239 7.31731 20.3101C7.2662 19.1853 7.25509 18.8479 7.25509 15.9999C7.25509 13.1519 7.26576 12.8146 7.31731 11.6897C7.37287 10.4759 7.61598 9.34925 8.48265 8.48259C9.34931 7.61592 10.476 7.37281 11.6898 7.31725C12.8146 7.26614 13.152 7.25503 16 7.25503ZM16 5.33325C13.1031 5.33325 12.74 5.3457 11.6022 5.39725C9.86887 5.47636 8.3462 5.90081 7.12354 7.12347C5.90131 8.3457 5.47642 9.86792 5.39731 11.6021C5.34576 12.7399 5.33331 13.103 5.33331 15.9999C5.33331 18.8968 5.34576 19.2599 5.39731 20.3977C5.47642 22.131 5.90087 23.6537 7.12354 24.8764C8.34576 26.0986 9.86798 26.5235 11.6022 26.6026C12.74 26.6541 13.1031 26.6666 16 26.6666C18.8969 26.6666 19.26 26.6541 20.3978 26.6026C22.1306 26.5235 23.6538 26.099 24.8764 24.8764C26.0986 23.6541 26.5235 22.1319 26.6026 20.3977C26.6542 19.2599 26.6666 18.8968 26.6666 15.9999C26.6666 13.103 26.6542 12.7399 26.6026 11.6021C26.5235 9.86881 26.0991 8.34614 24.8764 7.12347C23.6542 5.90125 22.132 5.47636 20.3978 5.39725C19.26 5.3457 18.8969 5.33325 16 5.33325Z" fill="white"/>
<path d="M16 10.5225C12.9746 10.5225 10.5226 12.9749 10.5226 15.9998C10.5226 19.0247 12.9746 21.4771 16 21.4771C19.0253 21.4771 21.4773 19.0251 21.4773 15.9998C21.4773 12.9745 19.0253 10.5225 16 10.5225ZM16 19.5553C14.0364 19.5553 12.4444 17.9633 12.4444 15.9998C12.4444 14.0362 14.0364 12.4442 16 12.4442C17.9635 12.4442 19.5555 14.0362 19.5555 15.9998C19.5555 17.9633 17.9635 19.5553 16 19.5553Z" fill="white"/>
<path d="M21.6938 11.5861C22.4007 11.5861 22.9738 11.013 22.9738 10.3061C22.9738 9.5992 22.4007 9.02612 21.6938 9.02612C20.9868 9.02612 20.4138 9.5992 20.4138 10.3061C20.4138 11.013 20.9868 11.5861 21.6938 11.5861Z" fill="white"/>
</g>
<defs>
<clipPath id="clip0">
<rect width="21.3333" height="21.3333" fill="white" transform="translate(5.33331 5.33325)"/>
</clipPath>
</defs>
</svg>
