<svg width="32" height="32" viewBox="0 0 32 32" fill="none" xmlns="http://www.w3.org/2000/svg">
<rect width="32" height="32" rx="4" fill="#007BB5"/>
<path d="M24.6667 6H7.33333C6.97971 6 6.64057 6.14048 6.39052 6.39052C6.14048 6.64057 6 6.97971 6 7.33333V24.6667C6 25.0203 6.14048 25.3594 6.39052 25.6095C6.64057 25.8595 6.97971 26 7.33333 26H24.6667C25.0203 26 25.3594 25.8595 25.6095 25.6095C25.8595 25.3594 26 25.0203 26 24.6667V7.33333C26 6.97971 25.8595 6.64057 25.6095 6.39052C25.3594 6.14048 25.0203 6 24.6667 6ZM11.9247 23.0627H8.916V13.5H11.9247V23.0627ZM10.42 12.1873C10.0741 12.1863 9.73629 12.0827 9.44921 11.8898C9.16213 11.6969 8.93865 11.4232 8.80702 11.1033C8.67538 10.7835 8.64149 10.4318 8.70961 10.0927C8.77774 9.75355 8.94483 9.44223 9.18978 9.19802C9.43473 8.95381 9.74656 8.78767 10.0859 8.72058C10.4252 8.65349 10.7768 8.68845 11.0963 8.82106C11.4157 8.95367 11.6887 9.17797 11.8808 9.46564C12.0728 9.75331 12.1753 10.0914 12.1753 10.4373C12.1754 10.6676 12.13 10.8957 12.0418 11.1084C11.9535 11.3211 11.8242 11.5143 11.6611 11.6769C11.498 11.8394 11.3044 11.9682 11.0914 12.0558C10.8785 12.1434 10.6503 12.1881 10.42 12.1873ZM23.0807 23.0627H20.1333V18.4373C20.1333 17.3127 20.1333 15.9373 18.5667 15.9373C17 15.9373 16.8113 17.1253 16.8113 18.3747V23.1253H13.8667V13.5H16.624V14.8127H16.6867C16.971 14.321 17.3837 13.9159 17.8805 13.6406C18.3774 13.3654 18.9397 13.2304 19.5073 13.25C22.516 13.25 23.08 15.25 23.08 17.8127L23.0807 23.0627Z" fill="white"/>
</svg>
