<svg width="32" height="32" viewBox="0 0 32 32" fill="none" xmlns="http://www.w3.org/2000/svg">
<rect width="32" height="32" rx="4" fill="#69ACE0"/>
<g clip-path="url(#clip0)">
<path d="M26.6666 9.38362C25.8817 9.73172 25.0382 9.96704 24.1528 10.0728C25.0565 9.53115 25.7505 8.6734 26.0773 7.65135C25.2316 8.15293 24.295 8.51718 23.298 8.71349C22.4996 7.86282 21.3621 7.3313 20.1033 7.3313C17.686 7.3313 15.7264 9.29096 15.7264 11.708C15.7264 12.0511 15.7651 12.3851 15.8397 12.7054C12.2022 12.5229 8.97715 10.7804 6.81845 8.13243C6.4417 8.77887 6.22589 9.53069 6.22589 10.3328C6.22589 11.8513 6.99859 13.1909 8.17297 13.9758C7.45552 13.9531 6.78065 13.7562 6.19053 13.4284C6.19022 13.4467 6.19015 13.4649 6.19015 13.4834C6.19015 15.604 7.69883 17.373 9.70109 17.7751C9.33379 17.8751 8.94713 17.9286 8.54798 17.9286C8.26594 17.9286 7.99176 17.9011 7.72451 17.8501C8.28148 19.5889 9.89785 20.8543 11.8131 20.8897C10.3151 22.0635 8.42795 22.7632 6.37738 22.7632C6.0241 22.7632 5.6757 22.7425 5.33331 22.7021C7.27026 23.9439 9.57086 24.6685 12.0425 24.6685C20.0931 24.6685 24.4954 17.9993 24.4954 12.2155C24.4954 12.0258 24.4911 11.837 24.4827 11.6493C25.3378 11.0322 26.0799 10.2613 26.6666 9.38362Z" fill="white"/>
</g>
<defs>
<clipPath id="clip0">
<rect width="21.3333" height="21.3333" fill="white" transform="translate(5.33331 5.33325)"/>
</clipPath>
</defs>
</svg>
